<?xml version="1.0" standalone="no"?><!DOCTYPE svg PUBLIC "-//W3C//DTD SVG 1.1//EN" "http://www.w3.org/Graphics/SVG/1.1/DTD/svg11.dtd"><svg t="1514442340831" class="icon" style="" viewBox="0 0 1024 1024" version="1.1" xmlns="http://www.w3.org/2000/svg" p-id="8490" xmlns:xlink="http://www.w3.org/1999/xlink" width="18" height="18"><defs><style type="text/css"></style></defs><path d="M512 256a85.312 85.312 0 0 0 73.173333-129.28L512 0l-73.173333 126.72A85.312 85.312 0 0 0 512 256z m196.053333 426.026667l-45.866666-45.866667-46.08 45.866667c-55.68 55.68-152.96 55.68-208.64 0l-45.866667-45.866667-46.08 45.866667A144.64 144.64 0 0 1 211.626667 725.333333c-30.933333 0-59.733333-9.813333-83.626667-26.24V896c0 23.466667 19.2 42.666667 42.666667 42.666667h682.666666c23.466667 0 42.666667-19.2 42.666667-42.666667v-196.906667A146.794667 146.794667 0 0 1 812.373333 725.333333a146.346667 146.346667 0 0 1-104.32-43.306666zM768 384H554.666667v-85.333333h-85.333334v85.333333H256c-70.613333 0-128 57.386667-128 128v65.706667C128 623.786667 165.546667 661.333333 211.626667 661.333333c22.4 0 43.306667-8.746667 59.093333-24.533333l91.306667-91.093333 91.093333 90.88c31.573333 31.573333 86.613333 31.573333 118.186667 0l91.306666-90.88 91.093334 90.88c15.786667 15.786667 36.693333 24.533333 59.093333 24.533333 46.08 0 83.626667-37.546667 83.626667-83.626667V512c-0.426667-70.613333-57.813333-128-128.426667-128z" fill="#F05B3D" p-id="8491"></path></svg>