<?xml version="1.0" standalone="no"?><!DOCTYPE svg PUBLIC "-//W3C//DTD SVG 1.1//EN" "http://www.w3.org/Graphics/SVG/1.1/DTD/svg11.dtd"><svg t="1514443092380" class="icon" style="" viewBox="0 0 1024 1024" version="1.1" xmlns="http://www.w3.org/2000/svg" p-id="14997" xmlns:xlink="http://www.w3.org/1999/xlink" width="20" height="20"><defs><style type="text/css"></style></defs><path d="M579.2 427.5c-2.8 0-5.6-1.1-7.8-3.2-25.6-25.6-59.3-44.5-94.9-53.4-35.4-8.8-70.3-7-98.3 5-4.1 1.8-8.9 0.9-12.1-2.3L236.6 244.2c-3.9-3.9-4.3-9.9-1.1-14.3 10.6-14.3 7.3-36.3-7.6-51.2-8.2-8.2-18.5-13.1-29.1-13.8-10-0.7-19.1 2.5-25.5 8.9-6.7 6.7-9.8 16.3-8.6 27 0.6 6-3.7 11.5-9.8 12.1-6 0.6-11.5-3.7-12.1-9.8-1.8-17.2 3.6-33.5 14.9-44.8 11-11 26.1-16.4 42.6-15.3 15.9 1.1 31.2 8.3 43.1 20.2 20 20 25.5 49.2 14.7 71.5L376.5 353c31-11.4 68.1-12.6 105.3-3.4 39.5 9.8 76.8 30.8 105.2 59.1 4.3 4.3 4.3 11.3 0 15.6-2.2 2.2-5 3.2-7.8 3.2z" fill="#C13105" p-id="14998"></path><path d="M998.1 624.3c0-117-86.6-280.3-325.8-277.9-27.7 0.3-54.5 2.6-80.1 7.5-49.2-38.2-112.6-61.2-181.9-61.2-156.2 0-252.1 120.5-282.8 260.9-8.3 38-18.6 190.9-40.1 205.3-25.3 16.9-37.5 18.7-42 41.3-6.2 31.1 16.4 58.8 44.9 58.8h783.2c25.4 0 47.5-14.7 63.1-35.9 36.7-50.1 61.5-109.8 61.5-198.8z" fill="#FFD400" p-id="14999"></path><path d="M873.5 870H90.3c-16.6 0-32.4-7.6-43.3-20.8-11.6-14.1-16.1-32.7-12.5-51 4.4-22.4 16.1-29.4 32.2-39.1 4.3-2.6 9.1-5.5 14.4-9.1 1.2-1.1 7.1-8.5 14.6-49.8 5-27.4 9-60.2 12.6-89.2 3.1-25.6 5.9-47.6 8.5-59.6 16.6-76 50.3-141.2 97.3-188.5 25.4-25.6 54.4-45.5 86.2-59.1 33.9-14.5 70.9-21.9 110.1-21.9 67.2 0 132.5 21.4 184.7 60.5 24-4.2 49.9-6.5 77.2-6.8 55.4-0.5 106 7.7 150.1 24.5 39.8 15.1 74.5 37.2 103.2 65.5 27.9 27.6 49.4 60.4 64 97.5 12.9 32.8 19.7 67.9 19.7 101.4 0 43.6-5.7 82-17.5 117.4-10.3 30.8-25.4 59.6-46.1 87.8-19.3 25.9-44.9 40.3-72.2 40.3zM410.3 303.7c-36.2 0-70.3 6.8-101.4 20.1-29.1 12.5-55.8 30.8-79.2 54.4-44.1 44.4-75.7 105.9-91.4 177.7-2.4 10.9-5 32.5-8.1 57.5-12 98-20.2 143.6-36.6 154.6-5.8 3.9-10.9 7-15.4 9.7-14.9 9-19.4 11.8-22 24.6-2.4 11.8 0.5 23.8 7.9 32.8 6.7 8.1 16.2 12.8 26.3 12.8h783.2c20.1 0 39.4-11.2 54.2-31.4 41-56 59.3-115.3 59.3-192.2h11-11c0-30.9-6.3-63.2-18.2-93.4-13.4-34.2-33.3-64.4-59-89.9-26.4-26.2-58.6-46.6-95.5-60.6-41.6-15.8-89.4-23.6-142.1-23-27.9 0.3-54.2 2.7-78.2 7.3-3.1 0.6-6.3-0.2-8.8-2.1-48.8-38-111-58.9-175-58.9z" fill="#C13105" p-id="15000"></path><path d="M35 366.7c20.7 20.7 52.2 22.9 70.2 4.9l121.3 121.3c-40.1 62.8-19.7 161.8 41.3 222.7 67.8 67.8 159.8 62.8 219.5 3s64.7-151.8-3-219.5c-55.6-55.6-142.8-77.5-205.4-50.6L149.5 319.1c13.6-18.4 10.4-46.4-8.6-65.5-20.7-20.7-52.2-22.9-70.2-4.9-9.4 9.4-13.2 22.6-11.8 35.9-10.8 0.4-21.1 4.2-28.8 11.9-18 18-15.8 49.5 4.9 70.2z" fill="#FFD400" p-id="15001"></path><path d="M533.2 598.9c-3-34.7-18.7-69.6-48.8-99.7-55.6-55.6-142.8-77.5-205.4-50.6L149.5 319.1c13.6-18.4 10.4-46.4-8.6-65.5-20.7-20.7-52.2-22.9-70.2-4.9-9.4 9.4-13.2 22.6-11.8 35.9-10.8 0.4-21.1 4.2-28.8 11.9-18 18-15.8 49.4 4.9 70.2s52.2 22.9 70.2 4.9l121.3 121.3c-40.1 62.8-19.7 161.8 41.3 222.7 33.7 33.7 73.3 49.4 112 49.4" fill="#FFD400" p-id="15002"></path><path d="M379.7 776c-43.9 0-85.3-18.2-119.7-52.6-31.3-31.3-53.2-72.7-61.6-116.4-8-41.5-2.9-81 14.2-112.4L104.4 386.3c-9.7 6.3-21.5 9.2-34 8.3-15.9-1.1-31.2-8.3-43.1-20.2-25-25-27.2-63.5-4.9-85.7 6.9-6.9 15.6-11.6 25.5-13.8 0.9-13.1 6.2-25.1 15.1-34 11-11 26.1-16.4 42.6-15.3 15.9 1.1 31.2 8.3 43.1 20.2 20 20 25.5 49.2 14.7 71.5l118.3 118.3c31-11.4 68.1-12.6 105.3-3.4 39.5 9.8 76.8 30.8 105.2 59.1 30.7 30.7 48.7 67.6 52 106.6l-21.9 1.9c-2.9-33.8-18.7-65.9-45.7-92.9-25.6-25.6-59.3-44.5-94.9-53.4-35.4-8.8-70.3-7-98.3 5l-6.8 2.9-141.5-141.3 5.6-7.6c10.6-14.3 7.3-36.3-7.6-51.2-8.2-8.2-18.5-13.1-29.1-13.8-10-0.7-19.1 2.5-25.5 8.9-6.7 6.7-9.8 16.3-8.6 27l1.2 11.7-11.8 0.4c-6 0.2-14.6 1.9-21.4 8.7-13.7 13.7-11.5 38.2 4.9 54.6 8.2 8.2 18.5 13.1 29.1 13.8 10 0.7 19.1-2.5 25.5-8.9l7.8-7.8 135.3 135.3-4.8 7.4c-17.7 27.7-23.3 64.7-15.7 104.1 7.6 39.5 27.3 76.8 55.5 105 30.2 30.2 66.2 46.1 104.1 46.1h0.1v22c0.1 0.2 0.1 0.2 0 0.2z" fill="#C13105" p-id="15003"></path><path d="M836.5 795.5l-110-188.3c-11.8-14.6-27.8-23.5-45.5-23.5-36.5 0-66 38.1-66 85.1 0 21.2 6.1 40.5 16 55.4-0.6 0-1.2-0.1-1.9-0.1-27.5 0-49.8 15.5-49.8 34.5 0 7.9 8.6 16.6 17.7 23.5 11.3 8.7 25.2 13.3 39.5 13.3h200z" fill="#FFD400" p-id="15004"></path><path d="M855.6 806.5H636.4c-16.6 0-33-5.5-46.2-15.5-14.8-11.3-22-21.8-22-32.2 0-21.4 18.8-39 45-44.1-6.1-14-9.3-29.8-9.3-45.9 0-25.2 7.7-48.9 21.6-66.9 14.6-18.8 34.3-29.2 55.4-29.2 20.4 0 39.6 9.8 54 27.6l0.5 0.7 120.2 205.5zM629 735.2c-20.7 0-38.8 11-38.8 23.5 0 1.2 2.5 6.5 13.3 14.7 9.3 7.1 21 11 32.8 11h180.9l-99.9-171c-10.2-12.2-23.1-18.9-36.5-18.9-30.3 0-55 33.2-55 74.1 0 18.2 5 35.7 14.1 49.3l11.8 17.7-21.2-0.6h-1c-0.1 0.2-0.3 0.2-0.5 0.2z" fill="#C13105" p-id="15005"></path><path d="M878 530.4c-4.1 0-8-2.3-9.9-6.2-22.2-45.4-73.6-74.8-131-74.8-6.1 0-11-4.9-11-11s4.9-11 11-11c65.7 0 124.9 34.2 150.7 87.2 2.7 5.5 0.4 12-5.1 14.7-1.5 0.7-3.1 1.1-4.7 1.1zM294.8 661.3c-2.5 0-5-0.8-7-2.5-19.6-16.3-30.9-40.7-30.9-66.9 0-22.1 8.1-43.1 22.7-59.1 4.1-4.5 11.1-4.8 15.5-0.7 4.5 4.1 4.8 11.1 0.7 15.5-10.9 11.9-17 27.6-17 44.2 0 19.6 8.4 37.8 23 50 4.7 3.9 5.3 10.8 1.4 15.5-2.1 2.6-5.2 4-8.4 4z" fill="#E2610A" p-id="15006"></path></svg>