<?xml version="1.0" standalone="no"?><!DOCTYPE svg PUBLIC "-//W3C//DTD SVG 1.1//EN" "http://www.w3.org/Graphics/SVG/1.1/DTD/svg11.dtd"><svg t="1514442877960" class="icon" style="" viewBox="0 0 1099 1024" version="1.1" xmlns="http://www.w3.org/2000/svg" p-id="12205" xmlns:xlink="http://www.w3.org/1999/xlink" width="18" height="18"><defs><style type="text/css"></style></defs><path d="M879.426884 20.34692a18.972128 18.972128 0 0 0-24.691263 10.393427L646.152194 542.767843l35.084689 14.297836 208.583427-511.972505a18.972128 18.972128 0 0 0-10.393426-24.746254z" fill="#AA7A46" p-id="12206"></path><path d="M967.083615 587.806025A56.366468 56.366468 0 0 0 890.865152 534.519091c0-1.209817 0.384942-2.364642 0.384942-3.574459a56.696418 56.696418 0 0 0-95.190591-41.793673 56.476451 56.476451 0 0 0-94.80565-37.669299 56.531443 56.531443 0 0 0-98.10515-34.699747 56.586435 56.586435 0 0 0-106.408893 0 56.531443 56.531443 0 0 0-98.160142 34.699747A56.476451 56.476451 0 0 0 303.774019 489.425917a56.696418 56.696418 0 0 0-95.190592 41.793674c0 1.209817 0.274958 2.364642 0.384942 3.574459a56.366468 56.366468 0 0 0-76.218463 53.286934" fill="#F4D182" p-id="12207"></path><path d="M603.148703 416.506955a56.586435 56.586435 0 0 0-106.408893 0 56.531443 56.531443 0 0 0-98.160142 34.974705A56.476451 56.476451 0 0 0 303.774019 489.425917a56.696418 56.696418 0 0 0-95.190592 41.793674c0 1.209817 0.274958 2.364642 0.384942 3.574459a56.366468 56.366468 0 0 0-76.218463 53.286934h284.416949v-18.972128a56.366468 56.366468 0 0 1 76.218463-53.286935c0-1.209817-0.384942-2.364642-0.384942-3.574458A56.696418 56.696418 0 0 1 588.410934 470.17883c2.034692-29.585522 31.070297-60.105902 60.820794-64.450244a65.440095 65.440095 0 0 1 27.495838 2.804575 54.991676 54.991676 0 0 0-32.005156-10.338435 56.531443 56.531443 0 0 0-41.573707 18.312229z" fill="#FFE1A4" p-id="12208"></path><path d="M686.351109 417.441813c-0.164975 0.439933-0.054992 0.384942 0 0z" fill="#FFF5DC" p-id="12209"></path><path d="M1080.861393 587.806025c-59.610977 253.401643-224.695988 377.902798-292.610708 419.586489a112.787928 112.787928 0 0 1-59.116052 16.497503H370.698888a112.787928 112.787928 0 0 1-59.116051-16.497503c-67.91472-41.68369-232.999731-166.184845-292.610709-419.586489" fill="#86DBEF" p-id="12210"></path><path d="M568.888889 322.361205a18.972128 18.972128 0 0 1-18.972128-18.972128c0-17.04742-5.884109-24.361312-14.792761-35.524623-10.338435-12.868052-23.151496-28.87063-23.151496-59.226035s12.813061-46.412975 23.096504-59.281027c8.963643-11.328285 14.847753-18.477203 14.847753-35.524623s-6.214059-24.856238-14.792761-35.579614c-10.283443-12.868052-23.096504-28.925622-23.096504-59.281027A18.972128 18.972128 0 0 1 530.944632 0 18.972128 18.972128 0 0 1 549.916761 18.917137c0 17.04742 6.214059 24.856238 14.792761 35.579614 10.283443 12.868052 23.096504 28.925622 23.096503 59.281027s-12.813061 46.357983-23.096503 59.226035c-8.908652 10.998335-14.792761 18.532195-14.792761 35.579614s5.884109 24.361312 14.792761 35.524623c10.338435 12.868052 23.151496 28.87063 23.151495 59.226035a18.972128 18.972128 0 0 1-18.972128 18.972128zM609.142796 227.555556a18.972128 18.972128 0 0 1-14.792761-30.795339c11.713227-14.682778 31.400247-39.319048 31.400247-82.927448a120.101821 120.101821 0 0 0-10.008485-49.492508 18.972128 18.972128 0 0 1 34.699747-15.287686 159.475861 159.475861 0 0 1 13.198003 64.780194 161.235594 161.235594 0 0 1-39.648999 106.683852 18.917137 18.917137 0 0 1-14.847752 7.038935zM466.54938 284.306965a18.972128 18.972128 0 0 1-17.37737-11.383277 163.600236 163.600236 0 0 1 25.571129-169.539337 18.972128 18.972128 0 0 1 31.675206 0 19.192095 19.192095 0 0 1 0 21.171795c-12.703077 16.002578-32.390097 40.583857-32.390097 84.247248a121.586596 121.586596 0 0 0 9.898501 48.942592 18.972128 18.972128 0 0 1-17.377369 26.560979z" fill="#E4E4F2" p-id="12211"></path><path d="M1055.18028 192.415875a18.972128 18.972128 0 0 0-26.725954 2.199667l-322.361205 380.982331 28.980613 24.526288 322.361205-380.92734a18.972128 18.972128 0 0 0-2.254659-26.780946z" fill="#AA7A46" p-id="12212"></path><path d="M1080.861393 587.806025H18.972128c59.610977 253.401643 224.695988 377.902798 292.610709 419.586489a112.787928 112.787928 0 0 0 59.116051 16.497503h202.204393a38.934107 38.934107 0 0 1-25.296171-9.788519c-35.524623-30.025455-138.029107-132.419956-190.051232-346.117609a19.02712 19.02712 0 0 1 18.532195-23.371462h688.770742c5.884109-18.147253 11.328285-36.954406 16.002578-56.806402z" fill="#51BCCE" p-id="12213"></path><path d="M1080.861393 606.778154H18.972128A18.972128 18.972128 0 0 1 0 587.861017a18.972128 18.972128 0 0 1 18.972128-18.972128h1061.889265a18.972128 18.972128 0 0 1 18.972128 18.972128 18.972128 18.972128 0 0 1-18.972128 18.972128z" fill="#EDEDEE" p-id="12214"></path><path d="M455.166103 488.326083a18.917137 18.917137 0 0 1-13.417969-5.499167L434.434241 475.623006a18.972128 18.972128 0 0 1 0-26.835938 18.972128 18.972128 0 0 1 26.835938 0l7.203909 7.20391a18.972128 18.972128 0 0 1 0 26.835938 18.917137 18.917137 0 0 1-13.307985 5.499167z" fill="#FFF5DC" p-id="12215"></path><path d="M553.49122 549.311852A18.972128 18.972128 0 0 1 540.073251 516.921755l18.972128-18.972128a18.972128 18.972128 0 0 1 26.835938 0 18.972128 18.972128 0 0 1 0 26.835938l-18.972128 18.972128a18.917137 18.917137 0 0 1-13.417969 5.554159z m130.93518-16.002578H665.39928a18.972128 18.972128 0 0 1-18.972128-18.917136A18.972128 18.972128 0 0 1 665.39928 495.475001h18.972129a18.972128 18.972128 0 0 1 18.972128 18.917137 18.972128 18.972128 0 0 1-18.972128 18.972128z" fill="#FFEBBE" p-id="12216"></path><path d="M351.946727 541.613018a18.972128 18.972128 0 0 1-13.417969-32.390098L357.445894 490.250792a18.972128 18.972128 0 0 1 26.835938 0 18.972128 18.972128 0 0 1 0 26.835938l-18.972128 18.972128A18.917137 18.917137 0 0 1 351.946727 541.613018z" fill="#FFF5DC" p-id="12217"></path></svg>