<?xml version="1.0" standalone="no"?><!DOCTYPE svg PUBLIC "-//W3C//DTD SVG 1.1//EN" "http://www.w3.org/Graphics/SVG/1.1/DTD/svg11.dtd"><svg t="1515058033564" class="icon" style="" viewBox="0 0 1024 1024" version="1.1" xmlns="http://www.w3.org/2000/svg" p-id="5151" xmlns:xlink="http://www.w3.org/1999/xlink" width="16" height="16"><defs><style type="text/css"></style></defs><path d="M962.3545 567.093782 531.189549 135.919622c-5.124717-5.125741-12.063757-7.994068-19.298532-7.994068-7.236821 0-14.186094 2.869351-19.303648 7.994068L61.405023 567.093782c-10.651594 10.650571-10.651594 27.948539 0 38.612413 10.663874 10.662851 24.545022 10.662851 35.207873 0l82.514295-85.940324 0 341.517187c0 15.062044 19.060101 34.123168 34.120099 34.123168l190.847629 0 218.428801 0 191.404308 0c15.083533 0 20.484543-19.061125 20.484543-34.123168L834.412572 523.192923l85.921905 82.512249c5.336542 5.316076 14.026458 7.994068 21.007453 7.994068 6.993275 0 14.81952-2.677992 20.170388-7.994068C972.160843 595.042321 973.01735 577.744353 962.3545 567.093782L962.3545 567.093782zM588.676845 840.798515 588.676845 840.798515 424.851663 840.798515 424.851663 656.492882c0-22.575158 24.924669-34.123168 47.504944-34.123168l81.910545 0c22.575158 0 34.408671 11.54801 34.408671 34.123168L588.675822 840.798515 588.676845 840.798515zM779.796674 840.798515 779.796674 840.798515 643.281487 840.798515 643.281487 656.492882c0-52.685943-36.325323-88.725764-89.013313-88.725764l-81.910545 0c-52.693106 0-102.098329 36.039821-102.098329 88.725764l0 184.304609L233.730811 840.797491 233.730811 465.382263c0-0.073678 3.39533-0.125867 3.39533-0.190335l269.638113-271.356244 273.03242 274.742365L779.796674 840.798515z" p-id="5152" ></path></svg>