<?xml version="1.0" standalone="no"?><!DOCTYPE svg PUBLIC "-//W3C//DTD SVG 1.1//EN" "http://www.w3.org/Graphics/SVG/1.1/DTD/svg11.dtd"><svg t="1512717239844" class="icon" style="" viewBox="0 0 1024 1024" version="1.1" xmlns="http://www.w3.org/2000/svg" p-id="12461" xmlns:xlink="http://www.w3.org/1999/xlink" width="32" height="32"><defs><style type="text/css"></style></defs><path d="M317.333904 254.685563c7.518231 6.866385 13.985526 15.028275 24.180725 18.521842 7.182586 2.461051 12.840446 6.574742 15.438621 14.47262 0.926092 2.827395 4.241604 6.704702 7.755638 1.442862 1.622964-2.427282 3.473101-4.572132 5.943362-1.839905 2.361791 2.617617 1.174756 5.500271-1.804089 7.187703-2.241041 1.269923-4.591575 2.184759-5.710049 4.833075-4.372587 10.339486-11.009751 19.269879-18.33867 27.589358-7.17133 8.148587-5.64558 17.529235-5.958712 27.100218-0.217964 6.696516 5.450129 6.225795 7.875365 9.438976 2.308579 3.062755 4.553713 6.184863 6.640234 9.401114 1.382487 2.13564 2.399653 5.76633 5.051039 5.205559 11.07729-2.346441 22.237467 16.405645 33.126468-0.141216 0.264013-0.399089 1.277086-0.668219 1.76725-0.497327 5.9055 2.054799 8.889461-1.404999 11.539824-5.832845 1.469468-2.451842 4.155646-2.734274 6.731308-3.15997 14.526855-2.40477 19.805068-8.915044 18.376533-23.642466-0.873903-9.026584 3.085268-15.246239 10.147104-19.808138 1.991354-1.288343 4.045129-1.499144 3.14462-4.677533-1.288343-4.52199 1.871627-7.15291 4.870938-9.612938 13.162788-10.787694 19.264762-26.226315 21.593807-41.653679 1.679245-11.146874 10.169617-17.276479 13.31833-27.096125 1.728364-5.386684 6.052856-9.623171 0.968048-18.362206 7.483438 5.320169 12.625552 3.985778 12.195763-1.582031-0.599657-7.836479 3.603061-12.124132 8.267291-16.187681 8.361435-7.28287 6.188956-20.271696 15.291265-27.013237 0.606821-0.448208 0.448208-2.564405 0.030699-3.672646-3.635807-9.594519 1.886977-14.535041 9.373485-18.199501 6.0416-2.956332 9.989515-11.785417 9.266038-13.890358-3.671623-10.689457 3.88754-12.313443 10.031471-14.761192 3.118014-1.243317 2.010797-4.535293 6.575766-6.694469 0.046049 11.637038 10.723226 17.430998 11.164271 28.7723 0.583285 14.911618 8.41874 27.745924 16.802688 39.512922 2.936889 4.120854 6.324032 7.894807 7.980765 12.681834 3.560082 10.286274 10.523681 18.064424 18.501376 24.857131 6.332219 5.384637 7.473205 11.203156 0.432859 15.130605-7.313569 4.080945-10.775414 12.803607-18.417465 15.261589-9.270131 2.979868-14.391778 12.845563-24.475438 13.632485-7.650237 0.596588-14.19121 4.128017-20.603247 7.605212-14.210653 7.711636-20.074198 19.054985-17.917068 33.103956 0.606821 3.943822 1.14815 8.367575 7.043417 5.668093 3.778046-1.730411 4.507664-0.360204 5.665023 3.343141 3.269463 10.482749 13.33675 15.406898 24.01495 12.345166 2.565429-0.734734 5.296633 0.027629 7.511067-0.591471 11.021008-3.081175 24.829502 3.699252 33.164331-9.224082 0.669242-1.039679 2.891863-1.400906 4.428869-1.506307 8.635681-0.602727 17.043165-6.904247 26.045189-0.88516 1.122567 0.74906 3.90903-0.049119 5.41636-0.963954 14.128789-8.594749 29.928636-14.411221 42.745547-25.115004 4.192485-3.502777 6.636141-9.358135 6.704702-14.294564 0.074701-5.450129-6.508227-4.795213-10.655687-5.862521-4.090155-1.050935-5.750981-3.010567-2.568499-6.702656 2.003634-2.326998 5.750981-4.041036 3.337002-7.919367-2.237971-3.587712-5.981225-4.318352-10.067286-4.504594-6.076392-0.278339-12.139481-0.954745-18.182105-1.696642-2.188852-0.267083-4.746094-0.983397-4.473895-3.969405 0.188288-2.060939 2.093684-3.114944 3.826142-4.022617 3.611248-1.886977 13.21293 4.742001 9.909697-6.975878 1.232061-0.082888 2.475378-0.289596 3.702322-0.230244 3.52529 0.177032 7.04751 0.538259 10.576893 0.667196 1.714038 0.064468 3.987824-1.895163 2.825348-2.489704-8.200776-4.199649-4.915963-10.463306-3.876284-16.576537 0.185218-1.095961-1.471514-3.405563-2.62171-3.668553-4.628414-1.069355-5.940292-3.89675-6.169513-8.28264-0.157589-2.971681-2.454912-4.91494-5.110391-6.54302-6.636141-4.076852-13.589506-6.839779-21.390169-7.924483-14.542204-2.026146-18.538215-8.414647-24.312732-22.663162-3.197832-7.894807-1.7519-16.561188-6.335289-23.454178-2.693342-4.052293-1.75497-6.071276 0.715291-9.868765 3.616364-5.562692 8.882298-12.666484 3.074012-19.032472-4.218068-4.625344-5.586229-9.011234-5.254677-14.608719 0.512676-8.615215-1.763157-15.700587-9.826809-20.283975-3.872191-2.199085-7.242961-5.254677-10.911514-7.824199-10.200316-7.14677-18.301831-6.348592-26.768667 2.103918-12.007475 11.984962-15.623839 28.736485-24.505114 42.472324-4.937452 7.640004-13.043061 13.750165-11.464099 24.465205 0.048095 0.346901-0.847298 0.915859-1.38351 1.254573-17.921161 11.341303-20.558222 34.600029-36.810371 47.251164-0.406253 0.320295-0.478907 1.182942-0.542352 1.808182-0.677429 6.658653-4.105504 10.971889-10.180873 14.029528-2.921539 1.474584-6.919597 5.190209-6.771217 7.668657 0.692778 11.4334-10.061147 13.770632-15.22782 20.346397-1.778506 2.263553-8.29799 6.167466-9.743922 1.841951-2.836605-8.482185-9.360182-11.103896-15.996322-13.465686-20.843724-7.416923-43.288922-8.120958-64.361867-14.687514-13.582343-4.231371-27.615964-7.753591-36.467563-20.547988-4.749164-6.866385-11.875468-7.601118-18.952654-5.420453-7.709589 2.373047-7.547907 9.568936-7.691169 16.045441-0.376577 17.160845 9.381671 31.774681 12.334933 48.128137C313.243749 251.601318 315.684334 253.179256 317.333904 254.685563z" p-id="12462" fill="#ea6f5a"></path><path d="M727.100498 863.034958c-3.744277-5.002944-4.437056-10.113335 0.907673-14.410198 8.399297-6.757914 11.103896-14.512529 5.341658-24.317848-1.227967-2.082428-0.636496-4.380774 0.149403-6.537903 2.185782-5.974062 1.902326-11.967566 0.154519-17.972327-2.648316-9.105379-4.696975-17.983583-2.723018-27.859511 2.082428-10.407024-1.219781-21.199835 0.768503-32.028461 0.798179-4.330632-6.399757-10.480702-0.335644-14.546298 10.05296-6.745634-6.300496-7.257288-2.365884-13.059434 2.207271-3.25616 1.344624-8.624425 1.774413-13.045107 0.149403-1.547239 0.670266-3.599991-0.075725-4.604878-5.618974-7.572466-3.019777-16.500812-4.391007-24.74559-1.385557-8.334829 1.430582-16.775059-1.619894-25.310456-2.407839-6.745634-2.523473-14.320147-3.563152-21.539572-2.278903-15.83771-0.531096-33.039487-5.329379-47.349401-4.376681-13.06148-1.6158-25.480324-4.300956-38.055734-3.359514-15.702634-4.372587-31.228235-11.382235-46.723138-0.445138-0.986467-0.297782-2.606361 0.210801-3.608178 6.949272-13.657045 7.717775-27.563776 1.988284-41.808198-0.693802-1.728364-0.049119-3.329838 1.194198-4.356214 3.996011-3.289929 1.895163-6.758937 0.786922-10.438747-5.668093-18.821671-25.991977-41.382503-52.746318-39.787168-7.906064 0.470721-17.249873 4.287653-24.836665-1.606591-4.000104-3.110851-7.272637-2.847861-11.472286-1.091868-9.138124 3.823072-18.700921 6.378268-28.148084 9.257851-10.68127 3.254114-23.420409 1.895163-31.961946 11.148921-7.386224 8.003278-17.220197 10.109242-27.180036 12.478196-6.737448 1.604544-13.208836 4.329609-20.48659 6.783497 10.576893 6.256494 20.426215 8.157797 31.081902 3.223415 2.873444-1.329275 6.346545-1.483794 9.208732 0.704035 8.452509 6.458085 17.153682 6.012947 25.691125 0.553609 3.668553-2.346441 6.399757-1.544169 9.691733 0.455371 5.871731 3.563152 12.135388 5.891174 19.219737 4.161786 13.585413-3.310396 25.804712 1.100054 37.993313 6.411013 6.809079 2.971681 14.885012 5.306866 16.870226 12.897751 3.845585 14.68956 7.005554 29.559223 11.054777 44.230364 1.540076 5.591345 1.309832 11.538801 2.990101 17.479093 1.623987 5.740748 5.119601 12.04943 4.321422 17.773805-2.573615 18.443048 4.199649 35.675524 5.691629 53.55166 1.226944 14.712073 3.76679 29.635971 5.544273 44.150546 1.940189 15.865339 4.361331 32.452109 3.464915 49.02046-0.632403 11.661597 1.458211 24.409946-0.481977 35.144428-2.825348 15.59928 4.952802 31.460526-2.963495 46.24116 5.431709 24.481577 0.828878 49.202609 1.235131 73.789587 0.210801 12.770861 4.482081 25.408693 1.292436 38.271652-2.298346 9.249665-5.533017 10.522658-13.108552 4.608971-7.061836-5.510504-13.5629-11.761881-20.199041-17.71036-7.695263-6.892991-13.427824-15.371082-25.804712-13.133112-3.036149 0.545422-6.764054-2.358721-9.680477 1.017166-1.611707 1.866511-1.212618 4.105504-0.647753 6.39771 1.341554 5.458315 6.090718 1.203408 9.353019 3.342118-7.446599 7.17133-4.768607 11.95631 3.185552 15.959483 3.748371 1.882883 6.757914 5.068436 6.260587 9.964956-0.339738 3.311419 1.558495 5.67014 3.671623 7.502881 17.220197 14.984273 26.158776 36.143175 40.099277 53.572126 3.973498 4.968152 7.792477 7.201006 12.350283 1.721201 3.694135-4.447289 6.334265-4.51892 9.837042-0.052189 2.870374 3.66139 5.386684 2.530636 7.209192-1.289366 1.243317-2.602268 2.482541-5.212722 3.857864-7.746428 4.756327-8.767688 5.472642-19.650549 14.900362-26.056446 4.252861-2.889817 4.338818-7.488555-0.323365-11.262508-2.77623-2.248204-5.095042-4.470825-2.071172-8.809643C736.275461 882.488009 735.714689 874.561479 727.100498 863.034958z" p-id="12463" fill="#ea6f5a"></path><path d="M325.235874 727.142965c4.452405-7.638981 5.981225-13.936407 0.791016-21.307282-3.009544-4.27128-1.871627-10.570753 0.109494-15.733333 0.938372-2.436492 1.295506-4.470825 1.174756-7.184633-0.719384-15.947204-1.269923-31.870872-0.309038-47.895847 0.613984-10.172687-2.832512-19.85214 0.410346-30.91715 2.862187-9.773598-3.52529-21.042245-5.985318-31.612998-0.542352-2.325975-1.830695-5.502317-4.968152-4.944616-3.578502 0.63752-3.987824 4.155646-3.423983 6.971785 1.552356 7.737218-2.335185 13.596669-5.999644 19.629059-1.149173 1.886977-2.862187 3.773953-3.114944 5.812379-3.66139 29.386284-9.100262 58.632375-9.084912 88.342024 0.004093 6.5553-5.389754 11.598152-4.004197 17.427928 2.817162 11.849886 0.188288 23.458271 0.132006 35.163871-0.053212 10.918677 0.309038 21.818935 3.227508 32.429597 1.163499 4.227278 4.5312 8.082072 8.150634 8.332782 3.963265 0.274246 4.260024-4.754281 4.65195-8.290827 0.252757-2.230808 0.327458-5.058203 3.367701-4.833075 3.567245 0.25992 1.333368 3.623527 2.196015 5.265934 2.052752 3.901867-0.184195 12.131295 5.582135 11.272741 4.990664-0.741897 8.049327-7.748475 8.689916-13.745049 0.226151-2.096754-0.636496-4.437056-1.446955-6.493901-1.171686-2.952238-1.257643-5.114484 1.359974-7.668657 4.77884-4.65502 5.928013-11.516288 6.877641-17.48421C334.302367 735.38365 336.709183 726.725456 325.235874 727.142965z" p-id="12464" fill="#ea6f5a"></path><path d="M442.099489 496.176616c0.889253-2.210341 2.614547-3.370771 4.944616-4.13518 6.847965-2.252297 13.45443-14.155395 9.194406-18.911722-8.383948-9.363252-15.744589-20.559245-25.300222-27.752064-16.956184-12.768815-38.617529-11.571546-59.171658-11.344373-1.521656 0.01535-3.182482 0.692778-4.5312 1.479701-8.033977 4.681626-16.832364 7.547907-25.397437 10.971889-4.27128 1.705851-3.683902 2.904143-1.100054 6.743588 5.570879 8.29185 15.657608 8.054443 22.396079 13.849426 9.371438 8.061606 19.201318 15.418154 29.79663 22.047132 12.463869 7.798617 26.66429 7.182586 39.545668 11.9471C436.793646 501.339196 440.310749 500.631068 442.099489 496.176616z" p-id="12465" fill="#ea6f5a"></path><path d="M608.116593 810.229289c-3.314489-0.855484-4.933359-3.25616-5.028527-7.190773-0.361227-15.219633 0.429789-30.56104-5.393847-45.227064-2.418073-6.091742-1.586125-12.615319 0.271176-18.960841 1.160429-3.963265 0.317225-7.936763-0.01842-12.045337-0.991584-12.170181-8.256034-22.680559-8.05649-35.027771 0.085958-5.659907-0.057305-11.58178-1.586125-16.960277-3.130294-10.996448 0.531096-20.264533 4.466732-30.237675 2.967588-7.521301 11.476379-8.080026 14.361079-14.18814 3.213181-6.804986 7.574512-12.667507 12.30935-18.23327 5.589298-6.577812 12.357446-12.271488 8.556886-22.426779-0.618077-1.648546 3.796466-3.897773 0.651846-5.668093-2.915399-1.644453-5.329379 0.599657-7.397481 2.854001-5.816472 6.343475-13.808494 9.274224-21.337981 12.623505-5.431709 2.409886-10.893094 1.400906-12.771885-5.646604-1.89107-7.068999-5.081739-13.566994-8.527211-19.940145-3.529383-6.52767-2.87856-15.207353-6.610558-20.47431-9.766434-13.808494-18.885116-28.694529-36.636409-35.062564-9.119705-3.269463-16.9613-6.418176-27.161616-3.672646-16.346293 4.403287-30.127158 20.293185-28.900214 37.31793 0.452301 6.219655-1.302669 10.884908-4.067642 16.146749-3.623527 6.89913-5.386684 4.831029-9.06547 0.140193-6.184863-7.882528-11.216459-16.236799-14.865569-25.562189-1.944282-4.965082-8.765641-7.898901-9.477862-2.673899-1.337461 9.815553-7.716752 18.312064-6.308683 28.658713 2.418073 17.756409 4.230348 35.285644-4.022617 52.604078-5.002944 10.507308-5.698792 22.097274 2.723018 32.19833 1.333368 1.604544 1.49505 3.567245 0.700965 5.462408-4.847401 11.535731-4.351098 23.267936-1.465374 35.130102 0.210801 0.86367-0.234337 1.889023-0.376577 2.837628-1.705851 11.392468 5.461385 19.72218 10.831696 28.193109 2.600221 4.091178 5.996574 6.03239 3.880377 12.065803-3.137457 8.943696 3.027963 22.88829 9.785877 23.156396 5.253654 0.209778 6.952342 2.75167 9.353019 6.421246 6.353708 9.695826 23.51046 12.783141 30.169113 5.739724 11.224646-11.864212 25.750477-21.443381 27.829835-39.745213 0.045025-0.405229 0.892323-0.723477 1.672082-1.312902 4.197602 3.071965 5.190209 8.092305 6.15621 12.455683 2.974751 13.491269 10.616802 24.365944 17.920138 35.620265 5.010107 7.720845 8.358365 6.553253 12.158924-1.664919 1.375324 1.675152 2.12029 2.338255 2.565429 3.15997 5.705955 10.518564 7.852852 23.793916 22.199605 27.513634 3.272533 0.851391 1.095961 4.562922 1.871627 6.4192 1.412163 3.382027-1.036609 9.637498 5.374404 9.837042 6.056949 0.188288 12.150738-0.38374 18.203594-0.88516 2.403746-0.199545 3.325745-2.109034 2.196015-4.195555C613.360014 816.289308 613.279173 811.561633 608.116593 810.229289zM483.561809 694.709275c-1.981121-0.039909-4.663206-0.467651-4.199649-2.801812 1.482771-7.469112-0.667196-15.645328 3.619434-22.452361 2.936889-4.6673 7.246031-9.261944 13.340843-7.41897 6.232958 1.87879 4.477988 9.006118 6.591115 12.847609C502.978021 681.213913 489.169527 694.814676 483.561809 694.709275zM530.730085 587.495438c-1.454118 3.913123-5.378497 4.057409-8.933463 4.256954-1.913583 0.106424-3.835352 0.020466-5.160533 0.020466-9.193383 0.785899-17.827017 1.24127-26.372647 2.356674-6.193049 0.805342-4.945639-3.057639-3.532453-5.680373 2.945075-5.466502 4.88424-10.660804 4.173043-17.214057-0.515746-4.726651 15.555278-10.780531 21.189601-7.570419 4.347005 2.482541 12.071943 2.847861 10.267854 11.460006-0.428765 2.038426 2.184759 2.799766 3.702322 3.937682C528.854365 581.145823 532.280394 583.326489 530.730085 587.495438z" p-id="12466" fill="#ea6f5a"></path></svg>