<?xml version="1.0" standalone="no"?><!DOCTYPE svg PUBLIC "-//W3C//DTD SVG 1.1//EN" "http://www.w3.org/Graphics/SVG/1.1/DTD/svg11.dtd"><svg t="1515058752104" class="icon" style="" viewBox="0 0 1024 1024" version="1.1" xmlns="http://www.w3.org/2000/svg" p-id="13442" xmlns:xlink="http://www.w3.org/1999/xlink" width="16" height="16"><defs><style type="text/css"></style></defs><path d="M652.025 474.050h-206.708c-2.119 0-2.956-0.459-2.956-1.754v-31.766c0-2.119 0-2.679 4.523-2.679h255.468c4.802 0 5.546 1.107 5.546 2.771v29.829c0 2.306 0 3.6-5.173 3.6h-50.7zM446.705 635.842c-4.34 0-4.34-1.201-4.34-4.154v-29.553c0-1.659 0-2.492 4.893-2.492h255.188c5.357 0 5.357 1.567 5.357 3.97v27.519c0 3.6-0.827 4.71-4.25 4.71h-256.851zM815.509 273.205c0-7.476-7.197-7.019-7.197-7.019s-279.553 0.279-262.743 0c-11.636 0.279-14.13-5.727-14.13-5.727s-29.738-42.203-38.505-56.14c-3.879-3.97-10.705-5.916-10.705-5.916h-260.135c-5.633 0-7.293 7.293-7.293 7.293v611.871c0 8.127 5.173 8.773 5.173 8.773l591.589 0.091c3.694 0 3.97-2.956 3.97-2.956v-550.274zM779.314 783.861c0 3.51-2.771 6.281-6.281 6.281h-511.803c-6.919 0-10.251-8.035-10.251-16.162l-0.091-533.558c0-1.567 0-6.003 4.431-6.003h203.898c7.019 0 6.372 1.385 9.606 5.818 10.619 14.313 31.95 42.755 41.925 55.129 4.893 6.095 8.587 6.281 15.417 6.74l246.495 0.279c3.786 0 6.652 4.154 6.652 8.682v472.799z" p-id="13443"></path><path d="M326.142 435.693h40.657v40.657h-40.657v-40.657zM326.142 597.39h40.657v40.657h-40.657v-40.657z" p-id="13444"></path></svg>