<?xml version="1.0" standalone="no"?><!DOCTYPE svg PUBLIC "-//W3C//DTD SVG 1.1//EN" "http://www.w3.org/Graphics/SVG/1.1/DTD/svg11.dtd"><svg t="1512724989953" class="icon" style="" viewBox="0 0 1024 1024" version="1.1" xmlns="http://www.w3.org/2000/svg" p-id="1341" xmlns:xlink="http://www.w3.org/1999/xlink" width="18" height="18"><defs><style type="text/css"></style></defs><path d="M967 199.8H59c-6.6 0-12.1 5.4-12.1 12V777c0 6.6 5.4 12 12.1 12h908c6.6 0 12.1-5.4 12.1-12V211.8c0-6.6-5.4-12-12.1-12zM922.9 737H103.2V254h819.6v483z" fill="#FFD800" p-id="1342"></path><path d="M2.1 300.6h45v67.5h-45zM2.1 626.6h45v67.5h-45zM979.1 300.6h45v67.5h-45zM979.1 626.6h45v67.5h-45zM172.1 317.1h54.1v355.5h-54.1zM354.6 317.1h54.1v355.5h-54.1zM453.1 317.1h54.1v355.5h-54.1zM545.8 317.1h54.1v355.5h-54.1zM719.4 317.1h54.1v355.5h-54.1z" fill="#FFD800" p-id="1343"></path><path d="M214.5 317.1H309v51h-94.5zM220.5 473H309v52.7h-88.5zM393.2 620h88.5v52.7h-88.5zM593.4 620h88.5v52.7h-88.5zM769.1 620h96.5v52.7h-96.5zM769.1 317.1h96.5v52.7h-96.5zM593.4 317.1h88.5v52.7h-88.5zM572.1 461.5h93.4v52.7h-93.4z" fill="#FFD800" p-id="1344"></path><path d="M257.9 317.1H309v189.3h-51.1zM631.2 317.1h51.1v144.4h-51.1zM631.2 500.3h51.1v144.4h-51.1zM812.7 368.1h52.9v26.4h-52.9zM798.2 461.5h67.4v51.7h-67.4z" fill="#FFD800" p-id="1345"></path><path d="M812.7 511.2h52.9v120.3h-52.9z" fill="#FFD800" p-id="1346"></path></svg>