<?xml version="1.0" standalone="no"?><!DOCTYPE svg PUBLIC "-//W3C//DTD SVG 1.1//EN" "http://www.w3.org/Graphics/SVG/1.1/DTD/svg11.dtd"><svg t="1512715455747" class="icon" style="" viewBox="0 0 1024 1024" version="1.1" xmlns="http://www.w3.org/2000/svg" p-id="10304" xmlns:xlink="http://www.w3.org/1999/xlink" width="32" height="32"><defs><style type="text/css"></style></defs><path d="M152.576 353.12l-50.944 78.688 93.856 58.496s62.528 32.192 32.544 92.512C200.352 640 64 764.992 64 764.992l122.112 76.64c84.608-184.576 79.04-160 100.128-226.432 21.792-67.488 26.624-119.264-10.4-156.8-47.424-47.968-52.672-52.512-123.264-105.28z m66.784-29.632c44.384 0 80.352-32.384 80.352-72.32 0-40.192-35.968-72.672-80.352-72.672-44.736 0-80.448 32.512-80.448 72.672 0.032 39.968 35.712 72.32 80.448 72.32z m725.632 8.96s-26.688-207.744-478.24-79.136c19.488-33.824 28.544-55.68 28.544-55.68L382.56 165.696S337.024 315.328 255.776 384.96c0 0 78.72 45.76 77.92 44.448 22.528-22.688 42.848-45.824 60.096-68.192 18.144-8.064 35.488-15.424 52.352-22.368-21.056 37.888-54.464 94.56-88.288 130.432l47.424 41.888s32.48-31.424 67.84-69.184h40.288v69.824H356.224v55.872h157.184v133.696l-5.984-0.256c-17.312-0.864-44.224-3.744-54.944-20.576-12.704-20.576-3.264-57.984-2.72-81.248H341.152l-3.904 2.24s-39.84 179.424 114.688 175.488c144.576 3.936 227.488-40.736 267.296-71.488l15.84 59.488 89.152-37.632-60.32-148.576-72.416 22.688 13.344 50.816c-18.304 14.048-39.712 24.448-62.688 32.192V567.648H795.36v-55.872H642.144v-69.824h153.824v-55.808H522.464c19.712-24.192 35.168-46.496 39.264-60.32l-47.808-13.12c204.704-74.048 318.72-61.248 317.824 59.936v318.816s12.032 109.44-112.512 101.696l-67.456-14.56-15.712 64.448S926.912 926.976 950.72 701.6c23.808-225.28-5.728-369.152-5.728-369.152z" fill="#FF6600" p-id="10305"></path></svg>