<?xml version="1.0" standalone="no"?><!DOCTYPE svg PUBLIC "-//W3C//DTD SVG 1.1//EN" "http://www.w3.org/Graphics/SVG/1.1/DTD/svg11.dtd"><svg t="1512717913132" class="icon" style="" viewBox="0 0 1024 1024" version="1.1" xmlns="http://www.w3.org/2000/svg" p-id="23429" xmlns:xlink="http://www.w3.org/1999/xlink" width="128" height="128"><defs><style type="text/css"></style></defs><path d="M382.171429 704c-9.142857 0-16.457143 7.314286-18.285715 16.457143-1.828571 9.142857 5.485714 16.457143 12.8 16.457143 9.142857 0 16.457143-7.314286 18.285715-16.457143 1.828571-9.142857-3.657143-16.457143-12.8-16.457143z m-58.514286 10.971429c-27.428571 1.828571-51.2 23.771429-54.857143 51.2-3.657143 27.428571 14.628571 51.2 42.057143 49.371428 27.428571 0 53.028571-23.771429 54.857143-53.028571 3.657143-27.428571-14.628571-49.371429-42.057143-47.542857z" fill="#FFFFFF" p-id="23430"></path><path d="M766.171429 680.228571c-12.8-126.171429-182.857143-213.942857-382.171429-193.828571-201.142857 18.285714-352.914286 135.314286-340.114286 261.485714 12.8 126.171429 182.857143 213.942857 382.171429 193.828572 199.314286-18.285714 351.085714-135.314286 340.114286-261.485715z m-250.514286 49.371429c-9.142857 82.285714-89.6 149.942857-175.542857 149.942857-84.114286 0-138.971429-64-128-140.8 10.971429-74.971429 84.114286-138.971429 166.4-144.457143 82.285714-5.485714 144.457143 54.857143 137.142857 135.314286z" fill="#FFFFFF" p-id="23431"></path><path d="M1020.342857 323.657143C987.428571 137.142857 837.485714 62.171429 735.085714 54.857143c-20.114286-1.828571-38.4 9.142857-40.228571 29.257143-1.828571 18.285714 10.971429 36.571429 29.257143 40.228571 65.828571 14.628571 193.828571 34.742857 228.571428 223.085714 3.657143 18.285714 18.285714 40.228571 43.885715 34.742858 16.457143-3.657143 32.914286-14.628571 23.771428-58.514286z m-299.885714-51.2c-12.8-1.828571-23.771429 5.485714-27.428572 16.457143-3.657143 12.8 3.657143 27.428571 16.457143 31.085714 29.257143 5.485714 42.057143 25.6 45.714286 45.714286 0 0 3.657143 14.628571 16.457143 18.285714 12.8 3.657143 36.571429-5.485714 31.085714-31.085714-7.314286-36.571429-42.057143-74.971429-82.285714-80.457143z" fill="#E79014" p-id="23432"></path><path d="M736.914286 171.885714c-29.257143-5.485714-43.885714 16.457143-43.885715 32.914286s12.8 29.257143 34.742858 34.742857c60.342857 16.457143 96.914286 42.057143 107.885714 109.714286 3.657143 20.114286 21.942857 31.085714 34.742857 31.085714 18.285714 0 32.914286-14.628571 32.914286-32.914286v-1.828571c-10.971429-85.942857-76.8-159.085714-166.4-173.714286z" fill="#E79014" p-id="23433"></path><path d="M731.428571 704c-12.8 122.514286-188.342857 221.257143-380.342857 215.771429C173.714286 916.114286 54.857143 822.857143 74.971429 714.971429c18.285714-104.228571 164.571429-193.828571 334.628571-204.8 182.857143-10.971429 332.8 74.971429 321.828571 193.828571z m-29.257142-197.485714c-7.314286 0-10.971429 1.828571-10.971429-1.828572 0-1.828571 0-3.657143 3.657143-14.628571 10.971429-27.428571 27.428571-80.457143-7.314286-111.542857-23.771429-20.114286-120.685714-34.742857-223.085714 34.742857-5.485714 3.657143-12.8 10.971429-18.285714 9.142857-5.485714-1.828571-5.485714-7.314286-5.485715-16.457143-1.828571-47.542857 40.228571-186.514286-69.485714-175.542857-117.028571 20.114286-274.285714 201.142857-318.171429 290.742857C-106.057143 833.828571 124.342857 961.828571 349.257143 969.142857c245.028571 7.314286 493.714286-129.828571 524.8-314.514286 23.771429-124.342857-122.514286-148.114286-171.885714-148.114285z" fill="#D62629" p-id="23434"></path><path d="M376.685714 592.457143c-80.457143 3.657143-153.6 67.657143-166.4 144.457143-10.971429 76.8 43.885714 140.8 128 140.8 85.942857 0 166.4-67.657143 175.542857-149.942857 9.142857-78.628571-53.028571-138.971429-137.142857-135.314286z m-10.971428 171.885714c-3.657143 29.257143-29.257143 51.2-54.857143 53.028572-27.428571 0-45.714286-21.942857-42.057143-49.371429 3.657143-27.428571 27.428571-51.2 54.857143-51.2 27.428571-3.657143 45.714286 18.285714 42.057143 47.542857z m12.8-27.428571c-9.142857 0-14.628571-7.314286-12.8-16.457143 1.828571-9.142857 9.142857-16.457143 18.285714-16.457143s14.628571 7.314286 14.628571 16.457143c-3.657143 9.142857-10.971429 16.457143-20.114285 16.457143z" fill="#030000" p-id="23435"></path></svg>