<?xml version="1.0" standalone="no"?><!DOCTYPE svg PUBLIC "-//W3C//DTD SVG 1.1//EN" "http://www.w3.org/Graphics/SVG/1.1/DTD/svg11.dtd"><svg t="1514448716523" class="icon" style="" viewBox="0 0 1024 1024" version="1.1" xmlns="http://www.w3.org/2000/svg" p-id="5074" xmlns:xlink="http://www.w3.org/1999/xlink" width="32" height="32"><defs><style type="text/css"></style></defs><path d="M224.304762 951.398942a290.043034 52.373898 0 1 0 580.086067 0 290.043034 52.373898 0 1 0-580.086067 0Z" fill="#C5C1BD" p-id="5075"></path><path d="M404.182011 772.244092h79.102645v155.315696h-79.102645z" fill="#EFA124" p-id="5076"></path><path d="M472.809877 956.094533h-61.403881c-18.782363 0-34.313933-15.53157-34.313933-34.313933v-12.280776c0-18.782363 15.53157-34.313933 34.313933-34.313933h61.403881c18.782363 0 34.313933 15.53157 34.313933 34.313933v12.280776c0 19.143563-15.53157 34.313933-34.313933 34.313933z" fill="#EFA124" p-id="5077"></path><path d="M551.551323 772.244092h79.102645v155.315696h-79.102645z" fill="#EFA124" p-id="5078"></path><path d="M620.179189 956.094533h-61.40388c-18.782363 0-34.313933-15.53157-34.313933-34.313933v-12.280776c0-18.782363 15.53157-34.313933 34.313933-34.313933h61.40388c18.782363 0 34.313933 15.53157 34.313933 34.313933v12.280776c0 19.143563-15.53157 34.313933-34.313933 34.313933z" fill="#EFA124" p-id="5079"></path><path d="M131.115344 703.977425l-19.504762-13.725573c-30.340741-21.671958-37.564727-63.932275-15.892769-94.273016L285.347443 328.330159c21.671958-30.340741 63.932275-37.564727 94.273016-15.892769l19.504761 13.725573c30.340741 21.671958 37.564727 63.932275 15.892769 94.273016l-189.990829 267.648677c-20.949559 30.340741-63.571076 37.564727-93.911816 15.892769zM900.469841 703.977425l19.504762-13.725573c30.340741-21.671958 37.564727-63.932275 15.892769-94.273016l-189.990829-267.648677c-21.671958-30.340741-63.932275-37.564727-94.273016-15.892769l-19.504762 13.725573c-30.340741 21.671958-37.564727 63.932275-15.892769 94.273016l189.990829 267.648677c21.310758 30.340741 63.932275 37.564727 94.273016 15.892769z" fill="#F2B121" p-id="5080"></path><path d="M832.203175 499.177425c0 202.994004-107.998589 338.804938-315.688184 338.804938-195.047619 0-315.688183-135.810935-315.688183-338.804938S342.416931 103.302998 516.87619 103.302998s315.326984 192.880423 315.326985 395.874427z" fill="#F5D021" p-id="5081"></path><path d="M621.623986 403.459612c-28.173545 0-50.929101-28.534744-50.929101-63.571076 0-35.036332 22.755556-63.571076 50.929101-63.571076s50.929101 28.534744 50.9291 63.571076c0.361199 35.036332-22.755556 63.571076-50.9291 63.571076z" fill="#1F1204" p-id="5082"></path><path d="M621.623986 282.096649c24.922751 0 44.788713 25.64515 44.788712 57.430688s-20.22716 57.430688-44.788712 57.430688c-24.922751 0-44.788713-25.64515-44.788713-57.430688 0-31.424339 19.865961-57.430688 44.788713-57.430688m0-12.280776c-31.424339 0-57.069489 31.424339-57.069489 69.711464s25.64515 69.711464 57.069489 69.711464c31.424339 0 57.069489-31.424339 57.069488-69.711464s-25.283951-69.711464-57.069488-69.711464z" fill="#FFFFFF" p-id="5083"></path><path d="M409.961199 403.459612c-28.173545 0-50.929101-28.534744-50.9291-63.571076 0-35.036332 22.755556-63.571076 50.9291-63.571076s50.929101 28.534744 50.929101 63.571076c0.361199 35.036332-22.755556 63.571076-50.929101 63.571076z" fill="#1F1204" p-id="5084"></path><path d="M409.961199 282.096649c24.922751 0 44.788713 25.64515 44.788713 57.430688s-20.22716 57.430688-44.788713 57.430688c-24.922751 0-44.788713-25.64515-44.788712-57.430688 0-31.424339 20.22716-57.430688 44.788712-57.430688m0-12.280776c-31.424339 0-57.069489 31.424339-57.069488 69.711464s25.64515 69.711464 57.069488 69.711464c31.424339 0 57.069489-31.424339 57.069489-69.711464s-25.283951-69.711464-57.069489-69.711464z" fill="#FFFFFF" p-id="5085"></path><path d="M514.347795 373.84127c-35.75873 0-65.015873 28.895944-65.015873 67.183069 0 27.089947 29.257143 33.591534 65.015873 33.591534s65.015873-6.862787 65.015873-33.591534c-0.361199-38.648325-29.257143-67.183069-65.015873-67.183069z" fill="#F29D27" p-id="5086"></path><path d="M515.070194 443.913933c-24.922751 0-40.454321-9.391182-41.17672-9.752381-4.334392-2.889594-5.779189-8.668783-3.250793-13.003175 2.889594-4.334392 8.668783-5.779189 13.003174-3.250793 1.083598 0.722399 27.812346 15.892769 67.544268-0.722399 4.695591-2.167196 10.47478 0.361199 12.280776 5.05679 2.167196 4.695591-0.361199 10.47478-5.05679 12.280776-16.253968 7.223986-30.70194 9.391182-43.343915 9.391182z" fill="#DA4E2A" p-id="5087"></path><path d="M607.898413 81.269841c0-30.340741-24.561552-54.902293-54.902293-54.902292-13.725573 0-26.006349 5.05679-35.75873 13.003174-9.752381-8.307584-22.033157-13.003175-35.75873-13.003174-30.340741 0-54.902293 24.561552-54.902293 54.902292s24.561552 54.902293 54.902293 54.902293c3.973192 0 7.585185-0.361199 11.558377-1.083598v24.922751s88.132628-23.116755 99.691005-40.81552c9.391182-9.752381 15.17037-23.477954 15.170371-37.925926z" fill="#E34227" p-id="5088"></path></svg>