<?xml version="1.0" standalone="no"?><!DOCTYPE svg PUBLIC "-//W3C//DTD SVG 1.1//EN" "http://www.w3.org/Graphics/SVG/1.1/DTD/svg11.dtd"><svg t="1514448397464" class="icon" style="" viewBox="0 0 1024 1024" version="1.1" xmlns="http://www.w3.org/2000/svg" p-id="2237" xmlns:xlink="http://www.w3.org/1999/xlink" width="18" height="18"><defs><style type="text/css"></style></defs><path d="M710.656 735.232c-49.152 67.584-122.88 198.656-190.464 247.808l-18.432-6.144c-4.096 0-12.288-6.144-12.288-6.144-22.528-6.144-40.96-34.816-32.768-63.488 22.528-40.96 49.152-77.824 77.824-114.688l110.592-137.216c-4.096-6.144 4.096-6.144 4.096-10.24l28.672-32.768c0-26.624-45.056-38.912-34.816-73.728l6.144-26.624c0-4.096-4.096-10.24 4.096-10.24-4.096-22.528 4.096-32.768 4.096-49.152 4.096-12.288-2.048-34.816 4.096-38.912 0-4.096 6.144-10.24-4.096-10.24 0-10.24-2.048-18.432 4.096-18.432 0-45.056 0-55.296-6.144-96.256 0-34.816-10.24-61.44-16.384-90.112-34.816-32.768-100.352 57.344-100.352 112.64l0 253.952c0 18.432-38.912 26.624-49.152 24.576-61.44 2.048-67.584-77.824-67.584-112.64l0-45.056c-6.144 0-4.096-16.384-4.096-18.432 6.144 0 4.096-10.24 4.096-10.24l0-45.056 4.096 0c0-4.096 4.096-12.288-4.096-12.288 0-6.144 0-6.144 4.096-6.144 0-4.096 0-10.24-4.096-10.24 0-34.816-10.24-67.584-16.384-100.352-32.768-45.056-79.872 61.44-79.872 114.688l0 180.224c0 18.432-6.144 90.112-49.152 71.68l-34.816-16.384L231.424 573.44c-10.24-18.432-28.672-18.432-24.576-51.2 0-12.288-4.096-26.624-4.096-40.96l0-38.912c-10.24-4.096 4.096-26.624-6.144-28.672 4.096-10.24-4.096-18.432-4.096-26.624l0-38.912c-4.096 4.096-4.096-10.24 0-4.096-6.144-18.432-6.144-28.672-6.144-51.2-6.144 0 0-12.288-4.096-18.432l-10.24-12.288c6.144-16.384-6.144-18.432 0-32.768C167.936 223.232 163.84 219.136 163.84 206.848 161.792 178.176 133.12 151.552 98.304 172.032 65.536 174.08 53.248 157.696 38.912 141.312 4.096 112.64 61.44 88.064 92.16 83.968c51.2 6.144 90.112 28.672 122.88 55.296 26.624 6.144 32.768 63.488 55.296 28.672 16.384-32.768 49.152-55.296 88.064-63.488 94.208 6.144 131.072 83.968 190.464-8.192 4.096-4.096 6.144-4.096 12.288-6.144L573.44 81.92c4.096-4.096 12.288 4.096 12.288-4.096l26.624-4.096L628.736 81.92C630.784 86.016 634.88 79.872 634.88 86.016c12.288 0 16.384 10.24 28.672 12.288L675.84 102.4l0 6.144 16.384 4.096c49.152 16.384 28.672-55.296 88.064-55.296 10.24-12.288 26.624-12.288 49.152-12.288 94.208 0 176.128 94.208 159.744 178.176-14.336 157.696-77.824 241.664-151.552 344.064L710.656 735.232zM763.904 299.008c16.384 49.152-14.336 161.792 6.144 192.512 20.48-40.96 49.152-73.728 67.584-118.784 4.096-4.096 6.144-6.144 6.144-12.288l6.144-6.144c20.48-22.528 32.768-100.352 36.864-129.024 10.24-55.296-2.048-116.736-61.44-83.968C788.48 180.224 747.52 227.328 763.904 299.008z" p-id="2238"></path></svg>