<?xml version="1.0" standalone="no"?><!DOCTYPE svg PUBLIC "-//W3C//DTD SVG 1.1//EN" "http://www.w3.org/Graphics/SVG/1.1/DTD/svg11.dtd"><svg t="1512716650206" class="icon" style="" viewBox="0 0 1024 1024" version="1.1" xmlns="http://www.w3.org/2000/svg" p-id="10889" xmlns:xlink="http://www.w3.org/1999/xlink" width="18" height="18"><defs><style type="text/css"></style></defs><path d="M202.971429 25.6c-47.542857 18.285714-60.342857 36.571429-89.6 126.171429-18.285714 54.857143-47.542857 129.828571-69.485715 175.542857-7.314286 14.628571-10.971429 25.6-9.142857 27.428571 1.828571 3.657143 42.057143-7.314286 58.514286-14.628571 7.314286-3.657143 23.771429-16.457143 34.742857-27.428572 18.285714-18.285714 29.257143-36.571429 42.057143-74.971428 1.828571-5.485714 7.314286-5.485714 54.857143-5.485715h51.2v40.228572c0 43.885714-5.485714 179.2-9.142857 197.485714l-1.828572 10.971429H76.8l-9.142857 7.314285c-9.142857 9.142857-25.6 40.228571-29.257143 58.514286l-1.828571 10.971429h109.714285l109.714286 1.828571-1.828571 20.114286c-3.657143 87.771429-54.857143 208.457143-124.342858 292.571428-18.285714 23.771429-74.971429 80.457143-98.742857 98.742858-14.628571 10.971429-14.628571 10.971429-7.314285 14.628571 16.457143 9.142857 78.628571 1.828571 126.171428-14.628571 20.114286-7.314286 27.428571-10.971429 43.885714-29.257143 38.4-40.228571 78.628571-111.542857 102.4-184.685715l14.628572-42.057142 12.8 14.628571c7.314286 7.314286 18.285714 21.942857 25.6 31.085714 69.485714 84.114286 87.771429 107.885714 106.057143 129.828572 27.428571 36.571429 34.742857 45.714286 38.4 43.885714 3.657143-3.657143 9.142857-45.714286 9.142857-71.314286 0-47.542857-1.828571-49.371429-53.028572-109.714285-53.028571-60.342857-84.114286-95.085714-87.771428-95.085715-1.828571 0-10.971429 7.314286-23.771429 18.285715-10.971429 9.142857-21.942857 16.457143-21.942857 16.457142s0-7.314286 3.657143-16.457142c5.485714-14.628571 16.457143-76.8 20.114286-104.228572l1.828571-14.628571H548.571429l-1.828572-21.942857c-1.828571-12.8-3.657143-29.257143-7.314286-38.4l-5.485714-16.457143-93.257143-1.828572H347.428571l1.828572-34.742857c1.828571-18.285714 3.657143-74.971429 3.657143-124.342857l1.828571-87.771429h171.885714l-1.828571-27.428571c-1.828571-31.085714-7.314286-43.885714-18.285714-49.371429-5.485714-3.657143-43.885714-3.657143-157.257143-3.657142h-149.942857l5.485714-21.942858c3.657143-12.8 12.8-40.228571 20.114286-64 7.314286-21.942857 14.628571-42.057143 14.628571-43.885714 1.828571-5.485714-16.457143-3.657143-36.571428 3.657143zM599.771429 146.285714c-3.657143 9.142857-1.828571 722.285714 1.828571 729.6 3.657143 5.485714 7.314286 5.485714 36.571429 5.485715h32.914285l9.142857 31.085714c5.485714 18.285714 10.971429 36.571429 12.8 40.228571 1.828571 5.485714 3.657143 9.142857 3.657143 9.142857 1.828571 0 9.142857-3.657143 18.285715-10.971428 117.028571-74.971429 104.228571-71.314286 202.971428-71.314286 62.171429 0 80.457143-1.828571 82.285714-3.657143 1.828571-3.657143 3.657143-102.4 3.657143-369.371428l-1.828571-365.714286-201.142857-1.828571c-179.2 3.657143-199.314286 3.657143-201.142857 7.314285z m323.657142 363.885715v288.914285l-45.714285 3.657143-45.714286 1.828572-38.4 25.6c-21.942857 10.971429-43.885714 25.6-51.2 29.257142l-10.971429 7.314286-3.657142-14.628571c-1.828571-7.314286-5.485714-21.942857-9.142858-32.914286l-5.485714-18.285714h-31.085714V513.828571c0-159.085714 1.828571-290.742857 1.828571-290.742857 1.828571-1.828571 54.857143-1.828571 120.685715-1.828571l118.857142 1.828571v287.085715z" fill="#0fb8f3" p-id="10890"></path></svg>