<?xml version="1.0" standalone="no"?><!DOCTYPE svg PUBLIC "-//W3C//DTD SVG 1.1//EN" "http://www.w3.org/Graphics/SVG/1.1/DTD/svg11.dtd"><svg t="1512715420992" class="icon" style="" viewBox="0 0 1024 1024" version="1.1" xmlns="http://www.w3.org/2000/svg" p-id="10189" xmlns:xlink="http://www.w3.org/1999/xlink" width="32" height="32"><defs><style type="text/css"></style></defs><path d="M744.4736 402.3808c0-95.05792-79.62624-104.8832-239.32928-47.01184l41.472 4.80256c-3.22048 11.13088-11.07456 42.07616-26.41408 42.07616h197.4272v54.3488h-107.25376v54.34368h107.25376v27.31008h-107.25376v109.14816c0-6.08768 36.2752-14.2592 50.80064-25.15968l-9.82016-40.13056 56.9856-17.78176 36.4032 90.21952c-0.14848-0.96768-0.26624-1.64864-0.26624-1.64864V402.3808zM429.02528 511.09888h74.1632v-54.3744h-21.44256c-27.32544 26.91072-52.11136 53.72416-52.72064 54.3744z" fill="#FF6600" p-id="10190"></path><path d="M861.5168 45.96224H162.46272c-64.3584 0-116.51072 52.16256-116.51072 116.52096v699.04896c0 64.33792 52.15232 116.51072 116.51072 116.51072h699.04896c64.34304 0 116.5312-52.16768 116.5312-116.51072V162.47808c0-64.35328-52.18304-116.51584-116.52608-116.51584zM283.6736 249.86112c34.7392 0 62.80704 25.6768 62.80704 57.1904 0 31.44704-28.13952 57.11872-62.80704 57.11872-34.68288 0-62.82752-25.64096-62.82752-57.11872 0.00512-31.51872 28.14464-57.1904 62.82752-57.1904z m52.49024 343.20896c-16.57344 52.06016-12.48256 32.74752-78.31552 177.80224l-95.3856-60.29824s106.39872-98.11968 128.22528-142.98112c23.08096-47.29856-25.5232-72.4992-25.5232-72.4992l-73.04704-46.17728 39.44448-61.60896c55.08608 41.472 59.27936 44.93824 96.4096 82.7136 28.7488 29.16864 25.10848 69.79072 8.192 123.04896z m518.28224 67.64032c-18.54976 176.89088-245.49376 111.1808-245.49376 111.1808l12.26752-50.59072 44.06784 11.48928c55.65952 3.6096 73.48736-23.11168 78.60736-46.592l-57.86112 24.3712-12.30336-46.592c-30.96576 24.1408-95.63136 58.97216-208.34304 55.94112-120.5504 3.09248-89.62048-145.28-89.62048-145.28l3.09248-9.1392h84.64896c-0.54784 27.22816-7.82848 55.26016 2.2016 71.3216 8.05888 13.1584 24.10496 19.00032 37.48864 19.75808v-118.272H369.08544v-27.20768h59.6736l-36.96128-32.70144c26.35776-28.09856 52.72064-72.4736 68.9152-102.2464a1491.02592 1491.02592 0 0 0-40.832 17.52064 652.53376 652.53376 0 0 1-46.97088 53.44256c0.60416 0.9472-60.6464-34.7392-60.6464-34.7392 63.29856-54.8608 98.72384-172.20608 98.72384-172.20608l88.09984 24.89856s-7.39328 17.40288-22.33856 43.97568c352.52736-101.13024 372.93056 62.02368 372.93056 62.02368s23.29088 112.73728 4.76672 289.64352z" fill="#FF6600" p-id="10191"></path></svg>